<mxfile host="app.diagrams.net" modified="2023-07-13T22:46:16.460Z" agent="Mozilla/5.0 (X11; Ubuntu; Linux x86_64; rv:109.0) Gecko/20100101 Firefox/115.0" etag="cEhcWJSWQ2B_bXafGdwj" version="21.6.2" type="github" pages="2">
  <diagram name="Halaman-1" id="FzSfXKgSNjZvwmdL0iKT">
    <mxGraphModel dx="1240" dy="746" grid="1" gridSize="10" guides="1" tooltips="1" connect="1" arrows="1" fold="1" page="1" pageScale="1" pageWidth="827" pageHeight="1169" math="0" shadow="0">
      <root>
        <mxCell id="0" />
        <mxCell id="1" parent="0" />
        <mxCell id="X9nFrclsXQs7v_txp84n-139" value="" style="group" vertex="1" connectable="0" parent="1">
          <mxGeometry x="40" y="80" width="760" height="920" as="geometry" />
        </mxCell>
        <mxCell id="X9nFrclsXQs7v_txp84n-1" value="&lt;i&gt;Project Manager&lt;/i&gt;" style="shape=umlActor;verticalLabelPosition=bottom;verticalAlign=top;html=1;outlineConnect=0;" vertex="1" parent="X9nFrclsXQs7v_txp84n-139">
          <mxGeometry y="200" width="50" height="100" as="geometry" />
        </mxCell>
        <mxCell id="X9nFrclsXQs7v_txp84n-5" value="" style="group" vertex="1" connectable="0" parent="X9nFrclsXQs7v_txp84n-139">
          <mxGeometry x="220" y="350" width="120" height="60" as="geometry" />
        </mxCell>
        <mxCell id="X9nFrclsXQs7v_txp84n-6" value="" style="ellipse;whiteSpace=wrap;html=1;" vertex="1" parent="X9nFrclsXQs7v_txp84n-5">
          <mxGeometry width="120" height="60" as="geometry" />
        </mxCell>
        <mxCell id="X9nFrclsXQs7v_txp84n-7" value="Kelola &lt;i&gt;Sprint&lt;/i&gt;" style="text;html=1;strokeColor=none;fillColor=none;align=center;verticalAlign=middle;whiteSpace=wrap;rounded=0;" vertex="1" parent="X9nFrclsXQs7v_txp84n-5">
          <mxGeometry x="7.5" y="11.25" width="105" height="37.5" as="geometry" />
        </mxCell>
        <mxCell id="X9nFrclsXQs7v_txp84n-8" value="" style="group" vertex="1" connectable="0" parent="X9nFrclsXQs7v_txp84n-139">
          <mxGeometry x="314" y="605" width="120" height="60" as="geometry" />
        </mxCell>
        <mxCell id="X9nFrclsXQs7v_txp84n-9" value="" style="ellipse;whiteSpace=wrap;html=1;" vertex="1" parent="X9nFrclsXQs7v_txp84n-8">
          <mxGeometry width="120" height="60" as="geometry" />
        </mxCell>
        <mxCell id="X9nFrclsXQs7v_txp84n-10" value="Buat&lt;i&gt; Product Backlog&lt;/i&gt;" style="text;html=1;strokeColor=none;fillColor=none;align=center;verticalAlign=middle;whiteSpace=wrap;rounded=0;" vertex="1" parent="X9nFrclsXQs7v_txp84n-8">
          <mxGeometry x="7.5" y="11.25" width="105" height="37.5" as="geometry" />
        </mxCell>
        <mxCell id="X9nFrclsXQs7v_txp84n-11" value="" style="group" vertex="1" connectable="0" parent="X9nFrclsXQs7v_txp84n-139">
          <mxGeometry x="314" y="690" width="120" height="60" as="geometry" />
        </mxCell>
        <mxCell id="X9nFrclsXQs7v_txp84n-12" value="" style="ellipse;whiteSpace=wrap;html=1;" vertex="1" parent="X9nFrclsXQs7v_txp84n-11">
          <mxGeometry width="120" height="60" as="geometry" />
        </mxCell>
        <mxCell id="X9nFrclsXQs7v_txp84n-13" value="Kelola &lt;i&gt;Sprint Backlog&lt;/i&gt;" style="text;html=1;strokeColor=none;fillColor=none;align=center;verticalAlign=middle;whiteSpace=wrap;rounded=0;" vertex="1" parent="X9nFrclsXQs7v_txp84n-11">
          <mxGeometry x="7.5" y="11.25" width="105" height="37.5" as="geometry" />
        </mxCell>
        <mxCell id="X9nFrclsXQs7v_txp84n-37" value="" style="group" vertex="1" connectable="0" parent="X9nFrclsXQs7v_txp84n-139">
          <mxGeometry x="220" y="270" width="120" height="60" as="geometry" />
        </mxCell>
        <mxCell id="X9nFrclsXQs7v_txp84n-38" value="" style="ellipse;whiteSpace=wrap;html=1;" vertex="1" parent="X9nFrclsXQs7v_txp84n-37">
          <mxGeometry width="120" height="60" as="geometry" />
        </mxCell>
        <mxCell id="X9nFrclsXQs7v_txp84n-39" value="Buat &lt;i&gt;Project&lt;/i&gt;" style="text;html=1;strokeColor=none;fillColor=none;align=center;verticalAlign=middle;whiteSpace=wrap;rounded=0;" vertex="1" parent="X9nFrclsXQs7v_txp84n-37">
          <mxGeometry x="7.5" y="11.25" width="105" height="37.5" as="geometry" />
        </mxCell>
        <mxCell id="X9nFrclsXQs7v_txp84n-53" value="&lt;i&gt;Login&lt;/i&gt;" style="ellipse;whiteSpace=wrap;html=1;" vertex="1" parent="X9nFrclsXQs7v_txp84n-139">
          <mxGeometry x="320" y="110" width="120" height="60" as="geometry" />
        </mxCell>
        <mxCell id="X9nFrclsXQs7v_txp84n-55" value="&lt;i&gt;Lead Developer&lt;br&gt;&lt;/i&gt;" style="shape=umlActor;verticalLabelPosition=bottom;verticalAlign=top;html=1;outlineConnect=0;" vertex="1" parent="X9nFrclsXQs7v_txp84n-139">
          <mxGeometry x="710" y="200" width="50" height="100" as="geometry" />
        </mxCell>
        <mxCell id="X9nFrclsXQs7v_txp84n-57" value="&lt;i&gt;Developer&lt;br&gt;&lt;/i&gt;" style="shape=umlActor;verticalLabelPosition=bottom;verticalAlign=top;html=1;outlineConnect=0;" vertex="1" parent="X9nFrclsXQs7v_txp84n-139">
          <mxGeometry x="710" y="550" width="50" height="100" as="geometry" />
        </mxCell>
        <mxCell id="X9nFrclsXQs7v_txp84n-58" value="" style="endArrow=none;html=1;rounded=0;exitX=1;exitY=0.3333333333333333;exitDx=0;exitDy=0;exitPerimeter=0;entryX=0;entryY=0.5;entryDx=0;entryDy=0;" edge="1" parent="X9nFrclsXQs7v_txp84n-139" source="X9nFrclsXQs7v_txp84n-1" target="X9nFrclsXQs7v_txp84n-38">
          <mxGeometry relative="1" as="geometry">
            <mxPoint x="370" y="430" as="sourcePoint" />
            <mxPoint x="530" y="430" as="targetPoint" />
          </mxGeometry>
        </mxCell>
        <mxCell id="X9nFrclsXQs7v_txp84n-59" value="" style="endArrow=none;html=1;rounded=0;exitX=1;exitY=0.3333333333333333;exitDx=0;exitDy=0;exitPerimeter=0;entryX=0;entryY=0.5;entryDx=0;entryDy=0;" edge="1" parent="X9nFrclsXQs7v_txp84n-139" source="X9nFrclsXQs7v_txp84n-1" target="X9nFrclsXQs7v_txp84n-6">
          <mxGeometry relative="1" as="geometry">
            <mxPoint x="60" y="243" as="sourcePoint" />
            <mxPoint x="130" y="200" as="targetPoint" />
          </mxGeometry>
        </mxCell>
        <mxCell id="X9nFrclsXQs7v_txp84n-60" value="" style="endArrow=none;html=1;rounded=0;exitX=1;exitY=0.3333333333333333;exitDx=0;exitDy=0;exitPerimeter=0;entryX=0;entryY=0.5;entryDx=0;entryDy=0;" edge="1" parent="X9nFrclsXQs7v_txp84n-139" source="X9nFrclsXQs7v_txp84n-1" target="X9nFrclsXQs7v_txp84n-9">
          <mxGeometry relative="1" as="geometry">
            <mxPoint x="60" y="243" as="sourcePoint" />
            <mxPoint x="130" y="320" as="targetPoint" />
          </mxGeometry>
        </mxCell>
        <mxCell id="X9nFrclsXQs7v_txp84n-61" value="" style="endArrow=none;html=1;rounded=0;exitX=1;exitY=0.3333333333333333;exitDx=0;exitDy=0;exitPerimeter=0;entryX=0;entryY=0.5;entryDx=0;entryDy=0;" edge="1" parent="X9nFrclsXQs7v_txp84n-139" source="X9nFrclsXQs7v_txp84n-1" target="X9nFrclsXQs7v_txp84n-12">
          <mxGeometry relative="1" as="geometry">
            <mxPoint x="70" y="253" as="sourcePoint" />
            <mxPoint x="130" y="440" as="targetPoint" />
          </mxGeometry>
        </mxCell>
        <mxCell id="X9nFrclsXQs7v_txp84n-62" value="" style="endArrow=none;html=1;rounded=0;exitX=1;exitY=0.3333333333333333;exitDx=0;exitDy=0;exitPerimeter=0;entryX=0.011;entryY=0.371;entryDx=0;entryDy=0;entryPerimeter=0;" edge="1" parent="X9nFrclsXQs7v_txp84n-139" source="X9nFrclsXQs7v_txp84n-1" target="X9nFrclsXQs7v_txp84n-53">
          <mxGeometry relative="1" as="geometry">
            <mxPoint x="60" y="243" as="sourcePoint" />
            <mxPoint x="130" y="200" as="targetPoint" />
          </mxGeometry>
        </mxCell>
        <mxCell id="X9nFrclsXQs7v_txp84n-65" value="" style="endArrow=none;html=1;rounded=0;exitX=0;exitY=0.3333333333333333;exitDx=0;exitDy=0;exitPerimeter=0;entryX=0.942;entryY=0.253;entryDx=0;entryDy=0;entryPerimeter=0;" edge="1" parent="X9nFrclsXQs7v_txp84n-139" source="X9nFrclsXQs7v_txp84n-55" target="X9nFrclsXQs7v_txp84n-53">
          <mxGeometry relative="1" as="geometry">
            <mxPoint x="60" y="243" as="sourcePoint" />
            <mxPoint x="325" y="132" as="targetPoint" />
          </mxGeometry>
        </mxCell>
        <mxCell id="X9nFrclsXQs7v_txp84n-67" value="" style="endArrow=none;html=1;rounded=0;exitX=0;exitY=0.3333333333333333;exitDx=0;exitDy=0;exitPerimeter=0;entryX=1;entryY=0.5;entryDx=0;entryDy=0;" edge="1" parent="X9nFrclsXQs7v_txp84n-139" source="X9nFrclsXQs7v_txp84n-55" target="X9nFrclsXQs7v_txp84n-9">
          <mxGeometry relative="1" as="geometry">
            <mxPoint x="720" y="243" as="sourcePoint" />
            <mxPoint x="443" y="125" as="targetPoint" />
          </mxGeometry>
        </mxCell>
        <mxCell id="X9nFrclsXQs7v_txp84n-68" value="" style="endArrow=none;html=1;rounded=0;exitX=0;exitY=0.3333333333333333;exitDx=0;exitDy=0;exitPerimeter=0;entryX=1;entryY=0.5;entryDx=0;entryDy=0;" edge="1" parent="X9nFrclsXQs7v_txp84n-139" source="X9nFrclsXQs7v_txp84n-55" target="X9nFrclsXQs7v_txp84n-12">
          <mxGeometry relative="1" as="geometry">
            <mxPoint x="720" y="243" as="sourcePoint" />
            <mxPoint x="444" y="480" as="targetPoint" />
          </mxGeometry>
        </mxCell>
        <mxCell id="X9nFrclsXQs7v_txp84n-69" value="&lt;i&gt;Display Error&lt;/i&gt;" style="ellipse;whiteSpace=wrap;html=1;align=center;" vertex="1" parent="X9nFrclsXQs7v_txp84n-139">
          <mxGeometry x="560" y="90" width="100" height="40" as="geometry" />
        </mxCell>
        <mxCell id="X9nFrclsXQs7v_txp84n-70" value="&lt;i&gt;Validasi User&lt;/i&gt;" style="ellipse;whiteSpace=wrap;html=1;align=center;" vertex="1" parent="X9nFrclsXQs7v_txp84n-139">
          <mxGeometry x="100" y="90" width="100" height="40" as="geometry" />
        </mxCell>
        <mxCell id="X9nFrclsXQs7v_txp84n-71" value="&amp;lt;&amp;lt;Include&amp;gt;&amp;gt;" style="endArrow=open;endSize=12;dashed=1;html=1;rounded=0;entryX=1;entryY=0.5;entryDx=0;entryDy=0;exitX=0.029;exitY=0.371;exitDx=0;exitDy=0;exitPerimeter=0;" edge="1" parent="X9nFrclsXQs7v_txp84n-139" source="X9nFrclsXQs7v_txp84n-53" target="X9nFrclsXQs7v_txp84n-70">
          <mxGeometry width="160" relative="1" as="geometry">
            <mxPoint x="320" y="120" as="sourcePoint" />
            <mxPoint x="560" y="290" as="targetPoint" />
          </mxGeometry>
        </mxCell>
        <mxCell id="X9nFrclsXQs7v_txp84n-72" value="&amp;lt;&amp;lt;Extend&amp;gt;&amp;gt;" style="endArrow=open;endSize=12;dashed=1;html=1;rounded=0;exitX=0;exitY=0.5;exitDx=0;exitDy=0;entryX=0.961;entryY=0.233;entryDx=0;entryDy=0;entryPerimeter=0;" edge="1" parent="X9nFrclsXQs7v_txp84n-139" source="X9nFrclsXQs7v_txp84n-69" target="X9nFrclsXQs7v_txp84n-53">
          <mxGeometry width="160" relative="1" as="geometry">
            <mxPoint x="330" y="140" as="sourcePoint" />
            <mxPoint x="210" y="110" as="targetPoint" />
          </mxGeometry>
        </mxCell>
        <mxCell id="X9nFrclsXQs7v_txp84n-74" value="" style="endArrow=none;html=1;rounded=0;exitX=0;exitY=0.3333333333333333;exitDx=0;exitDy=0;exitPerimeter=0;entryX=0.951;entryY=0.273;entryDx=0;entryDy=0;entryPerimeter=0;" edge="1" parent="X9nFrclsXQs7v_txp84n-139" source="X9nFrclsXQs7v_txp84n-57" target="X9nFrclsXQs7v_txp84n-53">
          <mxGeometry relative="1" as="geometry">
            <mxPoint x="720" y="243" as="sourcePoint" />
            <mxPoint x="443" y="125" as="targetPoint" />
            <Array as="points">
              <mxPoint x="710" y="350" />
            </Array>
          </mxGeometry>
        </mxCell>
        <mxCell id="X9nFrclsXQs7v_txp84n-75" value="" style="group" vertex="1" connectable="0" parent="X9nFrclsXQs7v_txp84n-139">
          <mxGeometry x="400" y="340" width="120" height="60" as="geometry" />
        </mxCell>
        <mxCell id="X9nFrclsXQs7v_txp84n-76" value="" style="ellipse;whiteSpace=wrap;html=1;" vertex="1" parent="X9nFrclsXQs7v_txp84n-75">
          <mxGeometry width="120" height="60" as="geometry" />
        </mxCell>
        <mxCell id="X9nFrclsXQs7v_txp84n-77" value="Lihat &lt;i&gt;Project&lt;/i&gt;" style="text;html=1;strokeColor=none;fillColor=none;align=center;verticalAlign=middle;whiteSpace=wrap;rounded=0;" vertex="1" parent="X9nFrclsXQs7v_txp84n-75">
          <mxGeometry x="7.5" y="11.25" width="105" height="37.5" as="geometry" />
        </mxCell>
        <mxCell id="X9nFrclsXQs7v_txp84n-78" value="" style="endArrow=none;html=1;rounded=0;exitX=0;exitY=0.3333333333333333;exitDx=0;exitDy=0;exitPerimeter=0;entryX=1;entryY=0.5;entryDx=0;entryDy=0;" edge="1" parent="X9nFrclsXQs7v_txp84n-139" source="X9nFrclsXQs7v_txp84n-57" target="X9nFrclsXQs7v_txp84n-76">
          <mxGeometry relative="1" as="geometry">
            <mxPoint x="720" y="543" as="sourcePoint" />
            <mxPoint x="444" y="126" as="targetPoint" />
            <Array as="points" />
          </mxGeometry>
        </mxCell>
        <mxCell id="X9nFrclsXQs7v_txp84n-79" value="" style="endArrow=none;html=1;rounded=0;exitX=0;exitY=0.3333333333333333;exitDx=0;exitDy=0;exitPerimeter=0;entryX=1;entryY=0.5;entryDx=0;entryDy=0;" edge="1" parent="X9nFrclsXQs7v_txp84n-139" source="X9nFrclsXQs7v_txp84n-55" target="X9nFrclsXQs7v_txp84n-76">
          <mxGeometry relative="1" as="geometry">
            <mxPoint x="720" y="243" as="sourcePoint" />
            <mxPoint x="443" y="125" as="targetPoint" />
          </mxGeometry>
        </mxCell>
        <mxCell id="X9nFrclsXQs7v_txp84n-80" value="" style="group" vertex="1" connectable="0" parent="X9nFrclsXQs7v_txp84n-139">
          <mxGeometry x="400" y="410" width="120" height="60" as="geometry" />
        </mxCell>
        <mxCell id="X9nFrclsXQs7v_txp84n-81" value="" style="ellipse;whiteSpace=wrap;html=1;" vertex="1" parent="X9nFrclsXQs7v_txp84n-80">
          <mxGeometry width="120" height="60" as="geometry" />
        </mxCell>
        <mxCell id="X9nFrclsXQs7v_txp84n-82" value="Update Status &lt;i&gt;Sprint Backlog&lt;br&gt;&lt;/i&gt;" style="text;html=1;strokeColor=none;fillColor=none;align=center;verticalAlign=middle;whiteSpace=wrap;rounded=0;" vertex="1" parent="X9nFrclsXQs7v_txp84n-80">
          <mxGeometry x="7.5" y="11.25" width="105" height="37.5" as="geometry" />
        </mxCell>
        <mxCell id="X9nFrclsXQs7v_txp84n-83" value="" style="endArrow=none;html=1;rounded=0;exitX=0;exitY=0.3333333333333333;exitDx=0;exitDy=0;exitPerimeter=0;entryX=1;entryY=0.5;entryDx=0;entryDy=0;" edge="1" parent="X9nFrclsXQs7v_txp84n-139" source="X9nFrclsXQs7v_txp84n-57" target="X9nFrclsXQs7v_txp84n-81">
          <mxGeometry relative="1" as="geometry">
            <mxPoint x="720" y="543" as="sourcePoint" />
            <mxPoint x="530" y="240" as="targetPoint" />
            <Array as="points" />
          </mxGeometry>
        </mxCell>
        <mxCell id="X9nFrclsXQs7v_txp84n-84" value="" style="group" vertex="1" connectable="0" parent="X9nFrclsXQs7v_txp84n-139">
          <mxGeometry x="180" y="780" width="120" height="60" as="geometry" />
        </mxCell>
        <mxCell id="X9nFrclsXQs7v_txp84n-85" value="" style="ellipse;whiteSpace=wrap;html=1;" vertex="1" parent="X9nFrclsXQs7v_txp84n-84">
          <mxGeometry width="120" height="60" as="geometry" />
        </mxCell>
        <mxCell id="X9nFrclsXQs7v_txp84n-86" value="Buat. Edit, Hapus &lt;i&gt;Sprint Backlog&lt;/i&gt;" style="text;html=1;strokeColor=none;fillColor=none;align=center;verticalAlign=middle;whiteSpace=wrap;rounded=0;" vertex="1" parent="X9nFrclsXQs7v_txp84n-84">
          <mxGeometry x="7.5" y="11.25" width="105" height="37.5" as="geometry" />
        </mxCell>
        <mxCell id="X9nFrclsXQs7v_txp84n-87" value="" style="endArrow=open;endFill=1;endSize=12;html=1;rounded=0;exitX=0.5;exitY=0;exitDx=0;exitDy=0;entryX=0;entryY=1;entryDx=0;entryDy=0;" edge="1" parent="X9nFrclsXQs7v_txp84n-139" source="X9nFrclsXQs7v_txp84n-85" target="X9nFrclsXQs7v_txp84n-13">
          <mxGeometry width="160" relative="1" as="geometry">
            <mxPoint x="400" y="760" as="sourcePoint" />
            <mxPoint x="320" y="650" as="targetPoint" />
          </mxGeometry>
        </mxCell>
        <mxCell id="X9nFrclsXQs7v_txp84n-91" value="" style="group" vertex="1" connectable="0" parent="X9nFrclsXQs7v_txp84n-139">
          <mxGeometry x="314" y="810" width="120" height="60" as="geometry" />
        </mxCell>
        <mxCell id="X9nFrclsXQs7v_txp84n-92" value="" style="ellipse;whiteSpace=wrap;html=1;" vertex="1" parent="X9nFrclsXQs7v_txp84n-91">
          <mxGeometry width="120" height="60" as="geometry" />
        </mxCell>
        <mxCell id="X9nFrclsXQs7v_txp84n-93" value="&lt;i&gt;Delivery&lt;/i&gt; &lt;i&gt;Sprint Backlog&lt;/i&gt;" style="text;html=1;strokeColor=none;fillColor=none;align=center;verticalAlign=middle;whiteSpace=wrap;rounded=0;" vertex="1" parent="X9nFrclsXQs7v_txp84n-91">
          <mxGeometry x="7.5" y="11.25" width="105" height="37.5" as="geometry" />
        </mxCell>
        <mxCell id="X9nFrclsXQs7v_txp84n-94" value="" style="endArrow=open;endFill=1;endSize=12;html=1;rounded=0;exitX=0.5;exitY=0;exitDx=0;exitDy=0;entryX=0.5;entryY=1;entryDx=0;entryDy=0;" edge="1" parent="X9nFrclsXQs7v_txp84n-139" source="X9nFrclsXQs7v_txp84n-92" target="X9nFrclsXQs7v_txp84n-12">
          <mxGeometry width="160" relative="1" as="geometry">
            <mxPoint x="260" y="730" as="sourcePoint" />
            <mxPoint x="338" y="679" as="targetPoint" />
          </mxGeometry>
        </mxCell>
        <mxCell id="X9nFrclsXQs7v_txp84n-95" value="" style="group" vertex="1" connectable="0" parent="X9nFrclsXQs7v_txp84n-139">
          <mxGeometry x="470" y="780" width="120" height="60" as="geometry" />
        </mxCell>
        <mxCell id="X9nFrclsXQs7v_txp84n-96" value="" style="ellipse;whiteSpace=wrap;html=1;" vertex="1" parent="X9nFrclsXQs7v_txp84n-95">
          <mxGeometry width="120" height="60" as="geometry" />
        </mxCell>
        <mxCell id="X9nFrclsXQs7v_txp84n-97" value="&lt;i&gt;Update Status&lt;/i&gt; &lt;i&gt;Sprint Backlog&lt;/i&gt;" style="text;html=1;strokeColor=none;fillColor=none;align=center;verticalAlign=middle;whiteSpace=wrap;rounded=0;" vertex="1" parent="X9nFrclsXQs7v_txp84n-95">
          <mxGeometry x="7.5" y="11.25" width="105" height="37.5" as="geometry" />
        </mxCell>
        <mxCell id="X9nFrclsXQs7v_txp84n-98" value="" style="endArrow=open;endFill=1;endSize=12;html=1;rounded=0;exitX=0.5;exitY=0;exitDx=0;exitDy=0;entryX=1;entryY=1;entryDx=0;entryDy=0;" edge="1" parent="X9nFrclsXQs7v_txp84n-139" source="X9nFrclsXQs7v_txp84n-96" target="X9nFrclsXQs7v_txp84n-13">
          <mxGeometry width="160" relative="1" as="geometry">
            <mxPoint x="390" y="760" as="sourcePoint" />
            <mxPoint x="390" y="690" as="targetPoint" />
          </mxGeometry>
        </mxCell>
        <mxCell id="X9nFrclsXQs7v_txp84n-99" value="" style="group" vertex="1" connectable="0" parent="X9nFrclsXQs7v_txp84n-139">
          <mxGeometry x="240" y="480" width="120" height="60" as="geometry" />
        </mxCell>
        <mxCell id="X9nFrclsXQs7v_txp84n-100" value="" style="ellipse;whiteSpace=wrap;html=1;" vertex="1" parent="X9nFrclsXQs7v_txp84n-99">
          <mxGeometry width="120" height="60" as="geometry" />
        </mxCell>
        <mxCell id="X9nFrclsXQs7v_txp84n-101" value="Buat &lt;i&gt;Sprint Planning&lt;br&gt;&lt;/i&gt;" style="text;html=1;strokeColor=none;fillColor=none;align=center;verticalAlign=middle;whiteSpace=wrap;rounded=0;" vertex="1" parent="X9nFrclsXQs7v_txp84n-99">
          <mxGeometry x="7.5" y="11.25" width="105" height="37.5" as="geometry" />
        </mxCell>
        <mxCell id="X9nFrclsXQs7v_txp84n-102" value="" style="group" vertex="1" connectable="0" parent="X9nFrclsXQs7v_txp84n-139">
          <mxGeometry x="380" y="480" width="120" height="60" as="geometry" />
        </mxCell>
        <mxCell id="X9nFrclsXQs7v_txp84n-103" value="" style="ellipse;whiteSpace=wrap;html=1;" vertex="1" parent="X9nFrclsXQs7v_txp84n-102">
          <mxGeometry width="120" height="60" as="geometry" />
        </mxCell>
        <mxCell id="X9nFrclsXQs7v_txp84n-104" value="Buat &lt;i&gt;Sprint Evaluating&lt;br&gt;&lt;/i&gt;" style="text;html=1;strokeColor=none;fillColor=none;align=center;verticalAlign=middle;whiteSpace=wrap;rounded=0;" vertex="1" parent="X9nFrclsXQs7v_txp84n-102">
          <mxGeometry x="7.5" y="11.25" width="105" height="37.5" as="geometry" />
        </mxCell>
        <mxCell id="X9nFrclsXQs7v_txp84n-106" value="" style="endArrow=open;endFill=1;endSize=12;html=1;rounded=0;exitX=0.5;exitY=0;exitDx=0;exitDy=0;entryX=0.583;entryY=1;entryDx=0;entryDy=0;entryPerimeter=0;" edge="1" parent="X9nFrclsXQs7v_txp84n-139" source="X9nFrclsXQs7v_txp84n-100" target="X9nFrclsXQs7v_txp84n-6">
          <mxGeometry width="160" relative="1" as="geometry">
            <mxPoint x="260" y="730" as="sourcePoint" />
            <mxPoint x="338" y="679" as="targetPoint" />
          </mxGeometry>
        </mxCell>
        <mxCell id="X9nFrclsXQs7v_txp84n-107" value="" style="endArrow=open;endFill=1;endSize=12;html=1;rounded=0;exitX=0;exitY=0;exitDx=0;exitDy=0;entryX=1;entryY=1;entryDx=0;entryDy=0;" edge="1" parent="X9nFrclsXQs7v_txp84n-139" source="X9nFrclsXQs7v_txp84n-103" target="X9nFrclsXQs7v_txp84n-7">
          <mxGeometry width="160" relative="1" as="geometry">
            <mxPoint x="324" y="400" as="sourcePoint" />
            <mxPoint x="290" y="360" as="targetPoint" />
          </mxGeometry>
        </mxCell>
        <mxCell id="X9nFrclsXQs7v_txp84n-108" value="" style="group" vertex="1" connectable="0" parent="X9nFrclsXQs7v_txp84n-139">
          <mxGeometry x="254" y="190" width="120" height="60" as="geometry" />
        </mxCell>
        <mxCell id="X9nFrclsXQs7v_txp84n-109" value="" style="ellipse;whiteSpace=wrap;html=1;" vertex="1" parent="X9nFrclsXQs7v_txp84n-108">
          <mxGeometry width="120" height="60" as="geometry" />
        </mxCell>
        <mxCell id="X9nFrclsXQs7v_txp84n-110" value="&lt;i&gt;Input Mockup&lt;br&gt;&lt;/i&gt;" style="text;html=1;strokeColor=none;fillColor=none;align=center;verticalAlign=middle;whiteSpace=wrap;rounded=0;" vertex="1" parent="X9nFrclsXQs7v_txp84n-108">
          <mxGeometry x="7.5" y="11.25" width="105" height="37.5" as="geometry" />
        </mxCell>
        <mxCell id="X9nFrclsXQs7v_txp84n-116" value="" style="group" vertex="1" connectable="0" parent="X9nFrclsXQs7v_txp84n-139">
          <mxGeometry x="120" y="190" width="120" height="60" as="geometry" />
        </mxCell>
        <mxCell id="X9nFrclsXQs7v_txp84n-117" value="" style="ellipse;whiteSpace=wrap;html=1;" vertex="1" parent="X9nFrclsXQs7v_txp84n-116">
          <mxGeometry width="120" height="60" as="geometry" />
        </mxCell>
        <mxCell id="X9nFrclsXQs7v_txp84n-118" value="&lt;i&gt;Input Blueprint&lt;br&gt;&lt;/i&gt;" style="text;html=1;strokeColor=none;fillColor=none;align=center;verticalAlign=middle;whiteSpace=wrap;rounded=0;" vertex="1" parent="X9nFrclsXQs7v_txp84n-116">
          <mxGeometry x="7.5" y="11.25" width="105" height="37.5" as="geometry" />
        </mxCell>
        <mxCell id="X9nFrclsXQs7v_txp84n-121" value="" style="endArrow=open;endFill=1;endSize=12;html=1;rounded=0;exitX=1;exitY=1;exitDx=0;exitDy=0;entryX=0.225;entryY=0.106;entryDx=0;entryDy=0;entryPerimeter=0;" edge="1" parent="X9nFrclsXQs7v_txp84n-139" source="X9nFrclsXQs7v_txp84n-117" target="X9nFrclsXQs7v_txp84n-38">
          <mxGeometry width="160" relative="1" as="geometry">
            <mxPoint x="300" y="450" as="sourcePoint" />
            <mxPoint x="300" y="420" as="targetPoint" />
          </mxGeometry>
        </mxCell>
        <mxCell id="X9nFrclsXQs7v_txp84n-122" value="" style="endArrow=open;endFill=1;endSize=12;html=1;rounded=0;exitX=0.746;exitY=0.949;exitDx=0;exitDy=0;entryX=1;entryY=0;entryDx=0;entryDy=0;exitPerimeter=0;" edge="1" parent="X9nFrclsXQs7v_txp84n-139" source="X9nFrclsXQs7v_txp84n-109" target="X9nFrclsXQs7v_txp84n-39">
          <mxGeometry width="160" relative="1" as="geometry">
            <mxPoint x="190" y="260" as="sourcePoint" />
            <mxPoint x="257" y="286" as="targetPoint" />
          </mxGeometry>
        </mxCell>
        <mxCell id="X9nFrclsXQs7v_txp84n-124" value="" style="group" vertex="1" connectable="0" parent="X9nFrclsXQs7v_txp84n-139">
          <mxGeometry x="400" y="270" width="120" height="60" as="geometry" />
        </mxCell>
        <mxCell id="X9nFrclsXQs7v_txp84n-125" value="" style="ellipse;whiteSpace=wrap;html=1;" vertex="1" parent="X9nFrclsXQs7v_txp84n-124">
          <mxGeometry width="120" height="60" as="geometry" />
        </mxCell>
        <mxCell id="X9nFrclsXQs7v_txp84n-126" value="Lihat &lt;i&gt;Mockup&lt;/i&gt;" style="text;html=1;strokeColor=none;fillColor=none;align=center;verticalAlign=middle;whiteSpace=wrap;rounded=0;" vertex="1" parent="X9nFrclsXQs7v_txp84n-124">
          <mxGeometry x="7.5" y="11.25" width="105" height="37.5" as="geometry" />
        </mxCell>
        <mxCell id="X9nFrclsXQs7v_txp84n-127" value="" style="endArrow=none;html=1;rounded=0;exitX=0;exitY=0.3333333333333333;exitDx=0;exitDy=0;exitPerimeter=0;entryX=1;entryY=0.5;entryDx=0;entryDy=0;" edge="1" parent="X9nFrclsXQs7v_txp84n-139" source="X9nFrclsXQs7v_txp84n-55" target="X9nFrclsXQs7v_txp84n-125">
          <mxGeometry relative="1" as="geometry">
            <mxPoint x="720" y="243" as="sourcePoint" />
            <mxPoint x="530" y="360" as="targetPoint" />
          </mxGeometry>
        </mxCell>
        <mxCell id="X9nFrclsXQs7v_txp84n-128" value="" style="endArrow=none;html=1;rounded=0;exitX=0;exitY=0.3333333333333333;exitDx=0;exitDy=0;exitPerimeter=0;entryX=1;entryY=0.5;entryDx=0;entryDy=0;" edge="1" parent="X9nFrclsXQs7v_txp84n-139" source="X9nFrclsXQs7v_txp84n-57" target="X9nFrclsXQs7v_txp84n-125">
          <mxGeometry relative="1" as="geometry">
            <mxPoint x="720" y="243" as="sourcePoint" />
            <mxPoint x="530" y="290" as="targetPoint" />
          </mxGeometry>
        </mxCell>
        <mxCell id="X9nFrclsXQs7v_txp84n-131" value="" style="group" vertex="1" connectable="0" parent="X9nFrclsXQs7v_txp84n-139">
          <mxGeometry x="400" y="190" width="120" height="60" as="geometry" />
        </mxCell>
        <mxCell id="X9nFrclsXQs7v_txp84n-132" value="" style="ellipse;whiteSpace=wrap;html=1;" vertex="1" parent="X9nFrclsXQs7v_txp84n-131">
          <mxGeometry width="120" height="60" as="geometry" />
        </mxCell>
        <mxCell id="X9nFrclsXQs7v_txp84n-133" value="Lihat &lt;i&gt;Mockup&lt;/i&gt;" style="text;html=1;strokeColor=none;fillColor=none;align=center;verticalAlign=middle;whiteSpace=wrap;rounded=0;" vertex="1" parent="X9nFrclsXQs7v_txp84n-131">
          <mxGeometry x="7.5" y="11.25" width="105" height="37.5" as="geometry" />
        </mxCell>
        <mxCell id="X9nFrclsXQs7v_txp84n-135" value="" style="endArrow=none;html=1;rounded=0;exitX=0;exitY=0.3333333333333333;exitDx=0;exitDy=0;exitPerimeter=0;entryX=1;entryY=0.5;entryDx=0;entryDy=0;" edge="1" parent="X9nFrclsXQs7v_txp84n-139" source="X9nFrclsXQs7v_txp84n-55" target="X9nFrclsXQs7v_txp84n-81">
          <mxGeometry relative="1" as="geometry">
            <mxPoint x="720" y="543" as="sourcePoint" />
            <mxPoint x="530" y="450" as="targetPoint" />
            <Array as="points" />
          </mxGeometry>
        </mxCell>
        <mxCell id="X9nFrclsXQs7v_txp84n-136" value="" style="endArrow=none;html=1;rounded=0;exitX=0;exitY=0.3333333333333333;exitDx=0;exitDy=0;exitPerimeter=0;entryX=1;entryY=0.5;entryDx=0;entryDy=0;" edge="1" parent="X9nFrclsXQs7v_txp84n-139" source="X9nFrclsXQs7v_txp84n-55" target="X9nFrclsXQs7v_txp84n-132">
          <mxGeometry relative="1" as="geometry">
            <mxPoint x="720" y="243" as="sourcePoint" />
            <mxPoint x="530" y="310" as="targetPoint" />
          </mxGeometry>
        </mxCell>
        <mxCell id="X9nFrclsXQs7v_txp84n-138" value="Sistem Manajemen Proyek Berbasis Odoo ERP" style="shape=umlFrame;whiteSpace=wrap;html=1;pointerEvents=0;width=280;height=40;" vertex="1" parent="X9nFrclsXQs7v_txp84n-139">
          <mxGeometry x="80" width="600" height="920" as="geometry" />
        </mxCell>
      </root>
    </mxGraphModel>
  </diagram>
  <diagram id="jeJyDaqmmxNK1jhFWpfN" name="Halaman-2">
    <mxGraphModel dx="1240" dy="746" grid="1" gridSize="10" guides="1" tooltips="1" connect="1" arrows="1" fold="1" page="1" pageScale="1" pageWidth="827" pageHeight="1169" math="0" shadow="0">
      <root>
        <mxCell id="0" />
        <mxCell id="1" parent="0" />
        <mxCell id="wMVmCbezlnjJ1-fFctpg-1" value="&lt;i style=&quot;font-weight: normal;&quot;&gt;Activity Diagram Login&lt;/i&gt;" style="swimlane;childLayout=stackLayout;resizeParent=1;resizeParentMax=0;startSize=20;html=1;" vertex="1" parent="1">
          <mxGeometry x="104" y="40" width="620" height="620" as="geometry" />
        </mxCell>
        <mxCell id="wMVmCbezlnjJ1-fFctpg-2" value="&lt;i&gt;Project Manager / Lead Developer / Developer&lt;br&gt;&lt;/i&gt;" style="swimlane;startSize=20;html=1;" vertex="1" parent="wMVmCbezlnjJ1-fFctpg-1">
          <mxGeometry y="20" width="300" height="600" as="geometry" />
        </mxCell>
        <mxCell id="wMVmCbezlnjJ1-fFctpg-19" value="" style="edgeStyle=orthogonalEdgeStyle;rounded=0;orthogonalLoop=1;jettySize=auto;html=1;entryX=0.5;entryY=0;entryDx=0;entryDy=0;" edge="1" parent="wMVmCbezlnjJ1-fFctpg-2" source="wMVmCbezlnjJ1-fFctpg-8" target="wMVmCbezlnjJ1-fFctpg-11">
          <mxGeometry relative="1" as="geometry" />
        </mxCell>
        <mxCell id="ojiJrw0_y6i-DsqAj5lc-21" value="Awal" style="edgeLabel;html=1;align=center;verticalAlign=middle;resizable=0;points=[];" vertex="1" connectable="0" parent="wMVmCbezlnjJ1-fFctpg-19">
          <mxGeometry x="-0.7467" y="-1" relative="1" as="geometry">
            <mxPoint as="offset" />
          </mxGeometry>
        </mxCell>
        <mxCell id="wMVmCbezlnjJ1-fFctpg-8" value="" style="ellipse;html=1;shape=startState;fillColor=#000000;strokeColor=#000000;" vertex="1" parent="wMVmCbezlnjJ1-fFctpg-2">
          <mxGeometry x="109.99999999999955" y="30" width="30" height="30" as="geometry" />
        </mxCell>
        <mxCell id="wMVmCbezlnjJ1-fFctpg-13" value="" style="group" vertex="1" connectable="0" parent="wMVmCbezlnjJ1-fFctpg-2">
          <mxGeometry x="70" y="110" width="110" height="45" as="geometry" />
        </mxCell>
        <mxCell id="wMVmCbezlnjJ1-fFctpg-11" value="" style="rounded=1;whiteSpace=wrap;html=1;" vertex="1" parent="wMVmCbezlnjJ1-fFctpg-13">
          <mxGeometry width="110" height="45" as="geometry" />
        </mxCell>
        <mxCell id="wMVmCbezlnjJ1-fFctpg-12" value="Membuka halaman &lt;i&gt;login&lt;/i&gt;" style="text;html=1;strokeColor=none;fillColor=none;align=center;verticalAlign=middle;whiteSpace=wrap;rounded=0;" vertex="1" parent="wMVmCbezlnjJ1-fFctpg-13">
          <mxGeometry y="5" width="110" height="40" as="geometry" />
        </mxCell>
        <mxCell id="wMVmCbezlnjJ1-fFctpg-24" value="" style="group" vertex="1" connectable="0" parent="wMVmCbezlnjJ1-fFctpg-2">
          <mxGeometry x="55" y="190" width="140" height="45" as="geometry" />
        </mxCell>
        <mxCell id="wMVmCbezlnjJ1-fFctpg-25" value="" style="rounded=1;whiteSpace=wrap;html=1;" vertex="1" parent="wMVmCbezlnjJ1-fFctpg-24">
          <mxGeometry width="140" height="45" as="geometry" />
        </mxCell>
        <mxCell id="wMVmCbezlnjJ1-fFctpg-27" value="Memasukkan &lt;i&gt;Username &lt;/i&gt;dan &lt;i&gt;password&lt;/i&gt;" style="text;html=1;strokeColor=none;fillColor=none;align=center;verticalAlign=middle;whiteSpace=wrap;rounded=0;" vertex="1" parent="wMVmCbezlnjJ1-fFctpg-24">
          <mxGeometry y="5" width="140" height="40" as="geometry" />
        </mxCell>
        <mxCell id="wMVmCbezlnjJ1-fFctpg-29" value="" style="group" vertex="1" connectable="0" parent="wMVmCbezlnjJ1-fFctpg-2">
          <mxGeometry x="55" y="270" width="140" height="45" as="geometry" />
        </mxCell>
        <mxCell id="wMVmCbezlnjJ1-fFctpg-30" value="" style="rounded=1;whiteSpace=wrap;html=1;" vertex="1" parent="wMVmCbezlnjJ1-fFctpg-29">
          <mxGeometry width="140" height="45" as="geometry" />
        </mxCell>
        <mxCell id="wMVmCbezlnjJ1-fFctpg-31" value="Klik tombol &lt;i&gt;&quot;Login&quot;&lt;/i&gt;" style="text;html=1;strokeColor=none;fillColor=none;align=center;verticalAlign=middle;whiteSpace=wrap;rounded=0;" vertex="1" parent="wMVmCbezlnjJ1-fFctpg-29">
          <mxGeometry y="5" width="140" height="40" as="geometry" />
        </mxCell>
        <mxCell id="wMVmCbezlnjJ1-fFctpg-39" value="" style="edgeStyle=orthogonalEdgeStyle;rounded=0;orthogonalLoop=1;jettySize=auto;html=1;" edge="1" parent="wMVmCbezlnjJ1-fFctpg-2" source="wMVmCbezlnjJ1-fFctpg-27" target="wMVmCbezlnjJ1-fFctpg-31">
          <mxGeometry relative="1" as="geometry" />
        </mxCell>
        <mxCell id="wMVmCbezlnjJ1-fFctpg-28" style="edgeStyle=orthogonalEdgeStyle;rounded=0;orthogonalLoop=1;jettySize=auto;html=1;entryX=1;entryY=0.5;entryDx=0;entryDy=0;" edge="1" parent="wMVmCbezlnjJ1-fFctpg-1" source="wMVmCbezlnjJ1-fFctpg-16" target="wMVmCbezlnjJ1-fFctpg-27">
          <mxGeometry relative="1" as="geometry">
            <Array as="points">
              <mxPoint x="442" y="235" />
            </Array>
          </mxGeometry>
        </mxCell>
        <mxCell id="wMVmCbezlnjJ1-fFctpg-35" value="" style="edgeStyle=orthogonalEdgeStyle;rounded=0;orthogonalLoop=1;jettySize=auto;html=1;" edge="1" parent="wMVmCbezlnjJ1-fFctpg-1" source="wMVmCbezlnjJ1-fFctpg-31" target="wMVmCbezlnjJ1-fFctpg-34">
          <mxGeometry relative="1" as="geometry" />
        </mxCell>
        <mxCell id="wMVmCbezlnjJ1-fFctpg-18" style="edgeStyle=orthogonalEdgeStyle;rounded=0;orthogonalLoop=1;jettySize=auto;html=1;exitX=1;exitY=0.5;exitDx=0;exitDy=0;entryX=0;entryY=0.5;entryDx=0;entryDy=0;" edge="1" parent="wMVmCbezlnjJ1-fFctpg-1" source="wMVmCbezlnjJ1-fFctpg-12" target="wMVmCbezlnjJ1-fFctpg-16">
          <mxGeometry relative="1" as="geometry">
            <mxPoint x="335.99999999999955" y="135" as="targetPoint" />
          </mxGeometry>
        </mxCell>
        <mxCell id="wMVmCbezlnjJ1-fFctpg-3" value="Sistem" style="swimlane;startSize=20;html=1;" vertex="1" parent="wMVmCbezlnjJ1-fFctpg-1">
          <mxGeometry x="300" y="20" width="320" height="600" as="geometry" />
        </mxCell>
        <mxCell id="ojiJrw0_y6i-DsqAj5lc-15" value="" style="group" vertex="1" connectable="0" parent="wMVmCbezlnjJ1-fFctpg-3">
          <mxGeometry x="71" y="470" width="140" height="45" as="geometry" />
        </mxCell>
        <mxCell id="ojiJrw0_y6i-DsqAj5lc-16" value="" style="rounded=1;whiteSpace=wrap;html=1;" vertex="1" parent="ojiJrw0_y6i-DsqAj5lc-15">
          <mxGeometry width="140" height="45" as="geometry" />
        </mxCell>
        <mxCell id="ojiJrw0_y6i-DsqAj5lc-17" value="Menampilkan menu utama" style="text;html=1;strokeColor=none;fillColor=none;align=center;verticalAlign=middle;whiteSpace=wrap;rounded=0;" vertex="1" parent="ojiJrw0_y6i-DsqAj5lc-15">
          <mxGeometry width="140" height="40" as="geometry" />
        </mxCell>
        <mxCell id="ojiJrw0_y6i-DsqAj5lc-7" value="" style="group" vertex="1" connectable="0" parent="wMVmCbezlnjJ1-fFctpg-3">
          <mxGeometry x="14.5" y="390" width="140" height="45" as="geometry" />
        </mxCell>
        <mxCell id="ojiJrw0_y6i-DsqAj5lc-8" value="" style="rounded=1;whiteSpace=wrap;html=1;" vertex="1" parent="ojiJrw0_y6i-DsqAj5lc-7">
          <mxGeometry width="140" height="45" as="geometry" />
        </mxCell>
        <mxCell id="ojiJrw0_y6i-DsqAj5lc-9" value="&lt;i&gt;Validasi User&lt;/i&gt;" style="text;html=1;strokeColor=none;fillColor=none;align=center;verticalAlign=middle;whiteSpace=wrap;rounded=0;" vertex="1" parent="ojiJrw0_y6i-DsqAj5lc-7">
          <mxGeometry y="5" width="140" height="40" as="geometry" />
        </mxCell>
        <mxCell id="wMVmCbezlnjJ1-fFctpg-14" value="" style="group" vertex="1" connectable="0" parent="wMVmCbezlnjJ1-fFctpg-3">
          <mxGeometry x="77" y="110" width="110" height="45" as="geometry" />
        </mxCell>
        <mxCell id="wMVmCbezlnjJ1-fFctpg-15" value="" style="rounded=1;whiteSpace=wrap;html=1;" vertex="1" parent="wMVmCbezlnjJ1-fFctpg-14">
          <mxGeometry width="110" height="45" as="geometry" />
        </mxCell>
        <mxCell id="wMVmCbezlnjJ1-fFctpg-16" value="Menampilkan halaman &lt;i&gt;login&lt;/i&gt;" style="text;html=1;strokeColor=none;fillColor=none;align=center;verticalAlign=middle;whiteSpace=wrap;rounded=0;" vertex="1" parent="wMVmCbezlnjJ1-fFctpg-14">
          <mxGeometry y="5" width="110" height="40" as="geometry" />
        </mxCell>
        <mxCell id="wMVmCbezlnjJ1-fFctpg-32" value="" style="group" vertex="1" connectable="0" parent="wMVmCbezlnjJ1-fFctpg-3">
          <mxGeometry x="63" y="270" width="140" height="45" as="geometry" />
        </mxCell>
        <mxCell id="wMVmCbezlnjJ1-fFctpg-33" value="" style="rounded=1;whiteSpace=wrap;html=1;" vertex="1" parent="wMVmCbezlnjJ1-fFctpg-32">
          <mxGeometry width="140" height="45" as="geometry" />
        </mxCell>
        <mxCell id="wMVmCbezlnjJ1-fFctpg-34" value="Verifikasi Proses" style="text;html=1;strokeColor=none;fillColor=none;align=center;verticalAlign=middle;whiteSpace=wrap;rounded=0;" vertex="1" parent="wMVmCbezlnjJ1-fFctpg-32">
          <mxGeometry y="5" width="140" height="40" as="geometry" />
        </mxCell>
        <mxCell id="ojiJrw0_y6i-DsqAj5lc-31" style="edgeStyle=orthogonalEdgeStyle;rounded=0;orthogonalLoop=1;jettySize=auto;html=1;" edge="1" parent="wMVmCbezlnjJ1-fFctpg-3" source="wMVmCbezlnjJ1-fFctpg-36">
          <mxGeometry relative="1" as="geometry">
            <mxPoint x="61" y="390" as="targetPoint" />
            <Array as="points">
              <mxPoint x="61" y="352" />
            </Array>
          </mxGeometry>
        </mxCell>
        <mxCell id="wMVmCbezlnjJ1-fFctpg-36" value="" style="rhombus;whiteSpace=wrap;html=1;" vertex="1" parent="wMVmCbezlnjJ1-fFctpg-3">
          <mxGeometry x="110.5" y="330" width="45" height="45" as="geometry" />
        </mxCell>
        <mxCell id="wMVmCbezlnjJ1-fFctpg-37" value="" style="edgeStyle=orthogonalEdgeStyle;rounded=0;orthogonalLoop=1;jettySize=auto;html=1;" edge="1" parent="wMVmCbezlnjJ1-fFctpg-3" source="wMVmCbezlnjJ1-fFctpg-34" target="wMVmCbezlnjJ1-fFctpg-36">
          <mxGeometry relative="1" as="geometry">
            <Array as="points">
              <mxPoint x="146" y="280" />
              <mxPoint x="146" y="280" />
            </Array>
          </mxGeometry>
        </mxCell>
        <mxCell id="wMVmCbezlnjJ1-fFctpg-45" value="" style="group" vertex="1" connectable="0" parent="wMVmCbezlnjJ1-fFctpg-3">
          <mxGeometry x="168" y="390" width="140" height="45" as="geometry" />
        </mxCell>
        <mxCell id="wMVmCbezlnjJ1-fFctpg-46" value="" style="rounded=1;whiteSpace=wrap;html=1;" vertex="1" parent="wMVmCbezlnjJ1-fFctpg-45">
          <mxGeometry width="140" height="45" as="geometry" />
        </mxCell>
        <mxCell id="wMVmCbezlnjJ1-fFctpg-47" value="&lt;i&gt;Display Error&lt;/i&gt;" style="text;html=1;strokeColor=none;fillColor=none;align=center;verticalAlign=middle;whiteSpace=wrap;rounded=0;" vertex="1" parent="wMVmCbezlnjJ1-fFctpg-45">
          <mxGeometry y="5" width="140" height="40" as="geometry" />
        </mxCell>
        <mxCell id="ojiJrw0_y6i-DsqAj5lc-5" style="edgeStyle=orthogonalEdgeStyle;rounded=0;orthogonalLoop=1;jettySize=auto;html=1;entryX=0.355;entryY=0.03;entryDx=0;entryDy=0;entryPerimeter=0;" edge="1" parent="wMVmCbezlnjJ1-fFctpg-3" source="wMVmCbezlnjJ1-fFctpg-36" target="wMVmCbezlnjJ1-fFctpg-46">
          <mxGeometry relative="1" as="geometry">
            <mxPoint x="203" y="370" as="targetPoint" />
            <Array as="points">
              <mxPoint x="218" y="353" />
            </Array>
          </mxGeometry>
        </mxCell>
        <mxCell id="ojiJrw0_y6i-DsqAj5lc-3" style="edgeStyle=orthogonalEdgeStyle;rounded=0;orthogonalLoop=1;jettySize=auto;html=1;entryX=1;entryY=0.5;entryDx=0;entryDy=0;exitX=0.5;exitY=0;exitDx=0;exitDy=0;" edge="1" parent="wMVmCbezlnjJ1-fFctpg-3" source="wMVmCbezlnjJ1-fFctpg-46" target="wMVmCbezlnjJ1-fFctpg-16">
          <mxGeometry relative="1" as="geometry">
            <Array as="points">
              <mxPoint x="238" y="135" />
            </Array>
          </mxGeometry>
        </mxCell>
        <mxCell id="ojiJrw0_y6i-DsqAj5lc-19" value="" style="ellipse;html=1;shape=endState;fillColor=#000000;strokeColor=#000000;" vertex="1" parent="wMVmCbezlnjJ1-fFctpg-3">
          <mxGeometry x="124.5" y="560" width="30" height="30" as="geometry" />
        </mxCell>
        <mxCell id="ojiJrw0_y6i-DsqAj5lc-20" value="" style="edgeStyle=orthogonalEdgeStyle;rounded=0;orthogonalLoop=1;jettySize=auto;html=1;" edge="1" parent="wMVmCbezlnjJ1-fFctpg-3" source="ojiJrw0_y6i-DsqAj5lc-17" target="ojiJrw0_y6i-DsqAj5lc-19">
          <mxGeometry relative="1" as="geometry" />
        </mxCell>
        <mxCell id="ojiJrw0_y6i-DsqAj5lc-22" value="Akhir" style="edgeLabel;html=1;align=center;verticalAlign=middle;resizable=0;points=[];" vertex="1" connectable="0" parent="ojiJrw0_y6i-DsqAj5lc-20">
          <mxGeometry x="-0.2653" y="5" relative="1" as="geometry">
            <mxPoint as="offset" />
          </mxGeometry>
        </mxCell>
        <mxCell id="ojiJrw0_y6i-DsqAj5lc-18" value="" style="edgeStyle=orthogonalEdgeStyle;rounded=0;orthogonalLoop=1;jettySize=auto;html=1;" edge="1" parent="wMVmCbezlnjJ1-fFctpg-3" source="ojiJrw0_y6i-DsqAj5lc-9" target="ojiJrw0_y6i-DsqAj5lc-17">
          <mxGeometry relative="1" as="geometry" />
        </mxCell>
        <mxCell id="ojiJrw0_y6i-DsqAj5lc-25" value="Login" style="text;strokeColor=none;fillColor=none;html=1;fontSize=24;fontStyle=1;verticalAlign=middle;align=center;" vertex="1" parent="1">
          <mxGeometry x="19" width="100" height="40" as="geometry" />
        </mxCell>
      </root>
    </mxGraphModel>
  </diagram>
</mxfile>
